<svg width="35" height="35" viewBox="0 0 35 35" fill="none" xmlns="http://www.w3.org/2000/svg">
<path d="M19.1666 20.834H22.5V15.834H27.5V12.5007H22.5V7.50065H19.1666V12.5007H14.1666V15.834H19.1666V20.834ZM10.8333 27.5007C9.91665 27.5007 9.1322 27.1745 8.47998 26.5223C7.82665 25.869 7.49998 25.084 7.49998 24.1673V4.16732C7.49998 3.25065 7.82665 2.46565 8.47998 1.81232C9.1322 1.1601 9.91665 0.833984 10.8333 0.833984H30.8333C31.75 0.833984 32.535 1.1601 33.1883 1.81232C33.8405 2.46565 34.1666 3.25065 34.1666 4.16732V24.1673C34.1666 25.084 33.8405 25.869 33.1883 26.5223C32.535 27.1745 31.75 27.5007 30.8333 27.5007H10.8333ZM4.16665 34.1673C3.24998 34.1673 2.46554 33.8412 1.81331 33.189C1.15998 32.5357 0.833313 31.7507 0.833313 30.834V7.50065H4.16665V30.834H27.5V34.1673H4.16665Z" fill="white"/>
</svg>
