<svg width="14" height="16" viewBox="0 0 14 16" fill="none" xmlns="http://www.w3.org/2000/svg">
<path fill-rule="evenodd" clip-rule="evenodd" d="M7 0.5C3.68629 0.5 1 3.18629 1 6.5V8.94795L0.25 10.4479V12.875H4.00576C4.10255 14.4445 5.40612 15.6875 7 15.6875C8.59388 15.6875 9.89745 14.4445 9.99424 12.875H13.75V10.4479L13 8.94795V6.5C13 3.18629 10.3137 0.5 7 0.5ZM8.4884 12.875H5.51161C5.60387 13.6149 6.23507 14.1875 7 14.1875C7.76493 14.1875 8.39613 13.6149 8.4884 12.875ZM2.5 6.5C2.5 4.01472 4.51472 2 7 2C9.48528 2 11.5 4.01472 11.5 6.5V9.30205L12.25 10.8021V11.375H1.75V10.8021L2.5 9.30205V6.5Z" fill="white"/>
</svg>
