<svg width="17" height="18" viewBox="0 0 17 18" fill="none" xmlns="http://www.w3.org/2000/svg">
<g opacity="0.5">
<path d="M8.5 8.11328C8.79339 8.11328 9.03125 8.35114 9.03125 8.64453V12.1862C9.03125 12.4796 8.79339 12.7174 8.5 12.7174C8.20661 12.7174 7.96875 12.4796 7.96875 12.1862V8.64453C7.96875 8.35114 8.20661 8.11328 8.5 8.11328Z" fill="white"/>
<path d="M8.49984 6.8737C8.89105 6.8737 9.20817 6.55656 9.20817 6.16536C9.20817 5.77417 8.89105 5.45703 8.49984 5.45703C8.10862 5.45703 7.7915 5.77417 7.7915 6.16536C7.7915 6.55656 8.10862 6.8737 8.49984 6.8737Z" fill="white"/>
<path fill-rule="evenodd" clip-rule="evenodd" d="M2.30225 8.9987C2.30225 5.57568 5.07715 2.80078 8.50016 2.80078C11.9232 2.80078 14.6981 5.57568 14.6981 8.9987C14.6981 12.4217 11.9232 15.1966 8.50016 15.1966C5.07715 15.1966 2.30225 12.4217 2.30225 8.9987ZM8.50016 3.86328C5.66395 3.86328 3.36475 6.16249 3.36475 8.9987C3.36475 11.8349 5.66395 14.1341 8.50016 14.1341C11.3364 14.1341 13.6356 11.8349 13.6356 8.9987C13.6356 6.16249 11.3364 3.86328 8.50016 3.86328Z" fill="white"/>
</g>
</svg>
