<svg width="20" height="20" viewBox="0 0 20 20" fill="none" xmlns="http://www.w3.org/2000/svg">
<path d="M17 9.29517C17 8.31112 16.2619 7.51246 15.3524 7.51246C14.9042 7.51246 14.5088 7.69786 14.2188 8.01162C13.0984 7.14166 11.5431 6.57119 9.82953 6.49988L10.5808 2.69201L13.0193 3.24821C13.0457 3.91851 13.5598 4.46046 14.1924 4.46046C14.8383 4.46046 15.3656 3.88999 15.3656 3.19117C15.3656 2.49234 14.8383 1.92188 14.1924 1.92188C13.7311 1.92188 13.3357 2.20711 13.1511 2.63496L10.4227 2.00745C10.3436 1.99318 10.2645 2.00745 10.1986 2.05023C10.1327 2.09302 10.0931 2.16432 10.0668 2.24989L9.23638 6.49988C7.4833 6.55693 5.91476 7.11313 4.7812 8.01162C4.49121 7.71213 4.0826 7.51246 3.64763 7.51246C2.73814 7.51246 2 8.31112 2 9.29517C2 10.0225 2.39543 10.6358 2.9754 10.921C2.94903 11.0921 2.93585 11.2776 2.93585 11.463C2.93585 14.2012 5.87522 16.4118 9.51318 16.4118C13.1511 16.4118 16.0905 14.2012 16.0905 11.463C16.0905 11.2776 16.0773 11.1064 16.051 10.9353C16.5914 10.65 17 10.0225 17 9.29517ZM5.73023 10.5645C5.73023 9.86564 6.25747 9.29517 6.90334 9.29517C7.54921 9.29517 8.07645 9.86564 8.07645 10.5645C8.07645 11.2633 7.54921 11.8338 6.90334 11.8338C6.25747 11.8338 5.73023 11.2633 5.73023 10.5645ZM12.2812 13.916C11.4772 14.7859 9.94816 14.843 9.5 14.843C9.05185 14.843 7.50967 14.7717 6.7188 13.916C6.60018 13.7876 6.60018 13.5737 6.7188 13.4453C6.83743 13.317 7.03515 13.317 7.15378 13.4453C7.65466 13.9873 8.7355 14.1869 9.51318 14.1869C10.2909 14.1869 11.3585 13.9873 11.8726 13.4453C11.9912 13.317 12.1889 13.317 12.3076 13.4453C12.3998 13.5879 12.3998 13.7876 12.2812 13.916ZM12.0703 11.8338C11.4244 11.8338 10.8972 11.2633 10.8972 10.5645C10.8972 9.86564 11.4244 9.29517 12.0703 9.29517C12.7162 9.29517 13.2434 9.86564 13.2434 10.5645C13.2434 11.2633 12.7162 11.8338 12.0703 11.8338Z" fill="white"/>
</svg>
