<svg width="17" height="20" viewBox="0 0 17 20" fill="none" xmlns="http://www.w3.org/2000/svg">
<path d="M13.285 13.5054C12.5819 13.5054 11.957 13.7811 11.4687 14.2143L6.19531 11.2799C6.35158 10.9255 6.44926 10.5513 6.44926 10.1573C6.44926 9.7437 6.35157 9.36966 6.19531 9.03473L11.6836 5.94277C12.1327 6.27754 12.6796 6.47453 13.2852 6.47453C14.7891 6.47453 16 5.25357 16 3.73713C15.9999 2.22097 14.789 1 13.285 1C11.7811 1 10.5702 2.22097 10.5702 3.73741C10.5702 4.28883 10.7265 4.78117 10.9999 5.21443L5.62884 8.18812C5.14056 7.69578 4.4569 7.40045 3.71482 7.40045C2.21089 7.40045 1 8.62141 1 10.1379C1 11.6543 2.21089 12.8753 3.71482 12.8753C4.45704 12.8753 5.14056 12.5799 5.62884 12.0876L10.8632 15.0022C10.6678 15.3764 10.5506 15.8097 10.5506 16.2626C10.5506 17.779 11.7615 19 13.2655 19C14.7694 19 15.9803 17.779 15.9803 16.2626C15.9999 14.7265 14.7695 13.5054 13.2851 13.5054L13.285 13.5054Z" fill="white" stroke="white" stroke-width="0.5"/>
</svg>
