<svg width="18" height="18" viewBox="0 0 18 18" fill="none" xmlns="http://www.w3.org/2000/svg">
<path d="M9.3 7.425C12.375 7.425 14.85 5.925 14.85 4.05C14.85 2.175 12.375 0.75 9.3 0.75C6.15 0.75 3.75 2.25 3.75 4.125C3.75 6 6.15 7.425 9.3 7.425ZM9.3 2.25C11.625 2.25 13.35 3.225 13.35 4.125C13.35 5.025 11.625 6 9.3 6C6.975 5.925 5.25 4.95 5.25 4.125C5.25 3.3 6.975 2.25 9.3 2.25Z" fill="black"/>
<path d="M14.1751 7.2763C13.8001 7.0513 13.3501 7.2013 13.1251 7.5013C12.7501 8.2513 11.2501 8.9263 9.30011 8.9263C7.2751 8.9263 5.8501 8.2513 5.4001 7.5013C5.1751 7.2013 4.7251 7.0513 4.3501 7.2763C3.9751 7.5013 3.9001 7.9513 4.1251 8.3263C4.9501 9.6013 6.9751 10.4263 9.30011 10.4263C11.6251 10.4263 13.6501 9.6013 14.4751 8.3263C14.6251 7.9513 14.5501 7.5013 14.1751 7.2763Z" fill="black"/>
<path d="M14.1749 10.65C13.7999 10.425 13.3499 10.575 13.1249 10.875C12.6749 11.55 11.2499 12.3 9.22489 12.3C7.2749 12.3 5.7749 11.625 5.3249 10.875C5.0999 10.5 4.6499 10.425 4.2749 10.65C3.8999 10.875 3.8249 11.325 4.0499 11.7C4.8749 12.975 6.8999 13.8 9.22489 13.8C11.5499 13.8 13.5749 12.975 14.3999 11.7C14.6249 11.325 14.5499 10.875 14.1749 10.65Z" fill="black"/>
<path d="M14.1751 14.0992C13.8001 13.8742 13.3501 14.0242 13.1251 14.3242C12.7501 15.0742 11.2501 15.7492 9.30011 15.7492C7.3501 15.7492 5.8501 15.0742 5.4001 14.3242C5.1751 13.9492 4.7251 13.8742 4.3501 14.0992C3.9751 14.3242 3.9001 14.7742 4.1251 15.1492C4.8751 16.4242 6.9001 17.2492 9.30011 17.2492C11.6251 17.2492 13.6501 16.4242 14.4751 15.1492C14.6251 14.7742 14.5501 14.3242 14.1751 14.0992Z" fill="black"/>
</svg>
