<svg width="12" height="14" viewBox="0 0 12 14" fill="none" xmlns="http://www.w3.org/2000/svg">
<path fill-rule="evenodd" clip-rule="evenodd" d="M5.99996 0.333252C4.3431 0.333252 2.99996 1.6764 2.99996 3.33325C2.99996 4.99011 4.3431 6.33325 5.99996 6.33325C7.65681 6.33325 8.99996 4.99011 8.99996 3.33325C8.99996 1.6764 7.65681 0.333252 5.99996 0.333252ZM4.33329 3.33325C4.33329 2.41278 5.07948 1.66659 5.99996 1.66659C6.92043 1.66659 7.66663 2.41278 7.66663 3.33325C7.66663 4.25373 6.92043 4.99992 5.99996 4.99992C5.07948 4.99992 4.33329 4.25373 4.33329 3.33325Z" fill="white"/>
<path fill-rule="evenodd" clip-rule="evenodd" d="M5.99996 7.33325C3.05444 7.33325 0.666626 9.72107 0.666626 12.6666V13.6666H11.3333V12.6666C11.3333 9.72107 8.94548 7.33325 5.99996 7.33325ZM5.99996 8.66659C8.09685 8.66659 9.81688 10.2801 9.98627 12.3333H2.01365C2.18303 10.2801 3.90307 8.66659 5.99996 8.66659Z" fill="white"/>
</svg>
