<svg width="20" height="19" viewBox="0 0 20 19" fill="none" xmlns="http://www.w3.org/2000/svg">
<path d="M18.5 4.78V2.5C18.5 1.4 17.6 0.5 16.5 0.5H2.5C1.39 0.5 0.5 1.4 0.5 2.5V16.5C0.5 17.6 1.39 18.5 2.5 18.5H16.5C17.6 18.5 18.5 17.6 18.5 16.5V14.22C19.09 13.87 19.5 13.24 19.5 12.5V6.5C19.5 5.76 19.09 5.13 18.5 4.78ZM17.5 6.5V12.5H10.5V6.5H17.5ZM2.5 16.5V2.5H16.5V4.5H10.5C9.4 4.5 8.5 5.4 8.5 6.5V12.5C8.5 13.6 9.4 14.5 10.5 14.5H16.5V16.5H2.5Z" fill="#0C0C0E"/>
<path d="M13.5 11C14.3284 11 15 10.3284 15 9.5C15 8.67157 14.3284 8 13.5 8C12.6716 8 12 8.67157 12 9.5C12 10.3284 12.6716 11 13.5 11Z" fill="#0C0C0E"/>
</svg>
